<svg width="115" height="28" viewBox="0 0 115 28" fill="none" xmlns="http://www.w3.org/2000/svg">
<path d="M0.000488281 14C0.000488281 13.5738 0.345978 13.2284 0.77216 13.2284H31.2288C31.655 13.2284 32.0005 13.5738 32.0005 14C32.0005 14.4262 31.655 14.7717 31.2288 14.7717H0.77216C0.345977 14.7717 0.000488281 14.4262 0.000488281 14Z" fill="#E3B873"/>
<path d="M73.378 8.97329L49.2574 0.0370698C48.9489 -0.0769362 48.6061 0.0808222 48.4924 0.389589C48.4926 0.389339 48.4921 0.389839 48.4924 0.389589L45.8217 7.65847C45.7082 7.96724 45.8665 8.30976 46.1753 8.42326L48.9717 9.44982L48.3556 11.1282C48.2424 11.4369 48.4006 11.7789 48.7094 11.8924L54.3022 13.9458L53.8912 15.0646C53.5177 16.0667 53.8662 17.1947 54.7402 17.811V20.8512H46.7243C46.3363 19.9641 45.5422 19.3201 44.5939 19.1236V17.8725C44.5939 17.5435 44.3274 17.2767 43.9981 17.2767H41.5963C41.2673 17.2767 41.0005 17.5435 41.0005 17.8725V27.4043C41.0005 27.7335 41.2673 28.0001 41.5963 28.0001H43.9981C44.3274 28.0001 44.5939 27.7335 44.5939 27.4043V26.1535C45.5422 25.9567 46.3363 25.3129 46.7243 24.4256H54.7402V25.0214C54.7402 26.0084 55.5403 26.8087 56.5273 26.8087C57.5144 26.8087 58.3147 26.0084 58.3147 25.0214V18.4218C58.8562 18.1533 59.2745 17.6875 59.483 17.12L59.894 16.0012L64.9273 17.848C64.993 17.8723 65.0623 17.8845 65.1323 17.8845C65.382 17.8845 65.6055 17.7288 65.6918 17.4942L65.9151 16.886C67.8537 17.2507 69.7208 15.9749 70.0853 14.0366C70.22 13.3203 70.1325 12.58 69.8345 11.915L73.446 10.0606C73.7387 9.91059 73.8545 9.55157 73.7045 9.25881C73.6365 9.1258 73.521 9.0233 73.381 8.97154L73.378 8.97329ZM55.9315 18.3538L56.4248 18.5326C56.6493 18.6131 56.8848 18.6593 57.1231 18.6696V20.8512H55.9315V18.3538ZM43.4026 26.8087H42.1921V18.4683H43.4026V26.8087ZM45.7855 23.2343C45.7845 23.9913 45.3075 24.6661 44.5939 24.9196V20.3574C45.3075 20.6107 45.7845 21.2854 45.7855 22.0427V23.2343ZM46.9956 22.0427H57.1231V23.2343H46.9956V22.0427ZM56.5273 25.6172C56.1983 25.6172 55.9315 25.3504 55.9315 25.0214V24.4256H57.1231V25.0214C57.1231 25.3504 56.8563 25.6172 56.5273 25.6172ZM58.7757 15.5909L58.3647 16.7097C58.1376 17.3267 57.4534 17.6433 56.8358 17.4167L55.7153 17.0062C55.0977 16.7795 54.7807 16.0949 55.0075 15.4771L55.4188 14.3588L58.7757 15.5909ZM64.779 16.5262L49.6792 10.9814L50.0905 9.86259L59.0379 13.1483C59.2497 13.2253 59.4872 13.177 59.652 13.023L61.3238 11.4492L66.0111 13.1708L64.779 16.5262ZM68.807 14.1978C68.4294 15.2156 67.4141 15.8517 66.3338 15.7469L67.2544 13.2393L68.758 12.465C68.9932 13.0155 69.0107 13.635 68.807 14.1978ZM66.7961 12.138C66.7646 12.1407 66.7334 12.1462 66.7026 12.1545L61.3911 10.2041C61.1793 10.1264 60.9418 10.1746 60.7773 10.3291L59.1034 11.9032L47.1456 7.51197L49.4042 1.36214L71.6944 9.62033L66.7961 12.138Z" fill="#E3B873"/>
<path d="M82.7701 14C82.7701 13.5738 83.1156 13.2284 83.5418 13.2284H113.998C114.425 13.2284 114.77 13.5738 114.77 14C114.77 14.4262 114.425 14.7717 113.998 14.7717H83.5418C83.1156 14.7717 82.7701 14.4262 82.7701 14Z" fill="#E3B873"/>
</svg>
